<svg xmlns="http://www.w3.org/2000/svg" viewBox="0 0 900 620" role="img" aria-labelledby="title desc">
  <title id="title">Menuang lilin cair</title>
  <desc id="desc">Ilustrasi lilin cair dituangkan ke wadah dengan sumbu di tengah.</desc>
  <rect width="900" height="620" fill="#f3fbff"/>
  <rect x="58" y="58" width="784" height="504" rx="8" fill="#ffffff" stroke="#031b35" stroke-width="12"/>
  <rect x="164" y="378" width="572" height="70" rx="8" fill="#ffd400" stroke="#031b35" stroke-width="10"/>
  <path d="M250 214h210c18 0 32 14 32 32v82H218v-82c0-18 14-32 32-32Z" fill="#007d7a" stroke="#031b35" stroke-width="10"/>
  <path d="M492 276c70 10 116 48 138 114" fill="none" stroke="#ffd400" stroke-width="26" stroke-linecap="round"/>
  <path d="M492 276c70 10 116 48 138 114" fill="none" stroke="#031b35" stroke-width="8" stroke-linecap="round"/>
  <ellipse cx="640" cy="450" rx="108" ry="32" fill="#ad005f" stroke="#031b35" stroke-width="10"/>
  <rect x="552" y="326" width="176" height="124" rx="18" fill="#fff4ad" stroke="#031b35" stroke-width="10"/>
  <path d="M640 304v94" stroke="#031b35" stroke-width="12" stroke-linecap="round"/>
  <path d="M620 304c0-34 20-56 20-56s20 22 20 56" fill="#ff7ac8" stroke="#031b35" stroke-width="8"/>
  <path d="M220 450c50 36 106 38 168 8" fill="none" stroke="#031b35" stroke-width="18" stroke-linecap="round"/>
</svg>
